<?xml version="1.0" encoding="UTF-8" standalone="no"?>
<svg width="23px" height="21px" viewBox="0 0 23 21" version="1.1" xmlns="http://www.w3.org/2000/svg" xmlns:xlink="http://www.w3.org/1999/xlink">
    <!-- Generator: Sketch 42 (36781) - http://www.bohemiancoding.com/sketch -->
    <title>cart</title>
    <desc>Created with Sketch.</desc>
    <defs></defs>
    <g id="Page-1" stroke="none" stroke-width="1" fill="none" fill-rule="evenodd">
        <g id="&lt;-or-=-4-categories-&amp;-&gt;3-pinned-copy" transform="translate(-974.000000, -29.000000)" fill="#2E3748">
            <g id="cart" transform="translate(974.000000, 29.000000)">
                <path d="M8.97807018,17.560649 C8.1374269,17.560649 7.46491228,18.2038962 7.46491228,19.0079553 C7.46491228,19.8120143 8.1374269,20.4552615 8.97807018,20.4552615 C9.81871345,20.4552615 10.4912281,19.8120143 10.4912281,19.0079553 C10.4912281,18.2038962 9.81871345,17.560649 8.97807018,17.560649 L8.97807018,17.560649 Z M8.97807018,19.4903907 C8.70906433,19.4903907 8.47368421,19.2652541 8.47368421,19.0079553 C8.47368421,18.7506564 8.70906433,18.5255198 8.97807018,18.5255198 C9.24707602,18.5255198 9.48245614,18.7506564 9.48245614,19.0079553 C9.48245614,19.2652541 9.24707602,19.4903907 8.97807018,19.4903907 L8.97807018,19.4903907 Z" id="Shape"></path>
                <path d="M17.0482456,17.560649 C16.2076023,17.560649 15.5350877,18.2038962 15.5350877,19.0079553 C15.5350877,19.8120143 16.2076023,20.4552615 17.0482456,20.4552615 C17.8888889,20.4552615 18.5614035,19.8120143 18.5614035,19.0079553 C18.5614035,18.2038962 17.8888889,17.560649 17.0482456,17.560649 L17.0482456,17.560649 Z M17.0482456,19.4903907 C16.7792398,19.4903907 16.5438596,19.2652541 16.5438596,19.0079553 C16.5438596,18.7506564 16.7792398,18.5255198 17.0482456,18.5255198 C17.3172515,18.5255198 17.5526316,18.7506564 17.5526316,19.0079553 C17.5526316,19.2652541 17.3172515,19.4903907 17.0482456,19.4903907 L17.0482456,19.4903907 Z" id="Shape"></path>
                <path d="M22.495614,5.21030246 C22.3947368,5.08165301 22.2602339,5.01732829 22.0921053,5.01732829 L4.94298246,5.01732829 L4.94298246,5.01732829 L3.93421053,0.578922495 C3.86695906,0.353785969 3.66520468,0.192974165 3.42982456,0.192974165 L0.907894737,0.192974165 C0.638888889,0.192974165 0.403508772,0.418110691 0.403508772,0.675409578 C0.403508772,0.932708465 0.638888889,1.15784499 0.907894737,1.15784499 L3.02631579,1.15784499 L6.45614035,16.2098299 C6.52339181,16.4349664 6.7251462,16.5957782 6.96052632,16.5957782 L19.0657895,16.5957782 C19.3347953,16.5957782 19.5701754,16.3706417 19.5701754,16.1133428 C19.5701754,15.8560439 19.3347953,15.6309074 19.0657895,15.6309074 L7.36403509,15.6309074 L6.92690058,13.7011657 L19.5701754,13.7011657 C19.8055556,13.7011657 19.9736842,13.5725163 20.0409357,13.3473798 L22.5628655,5.62841315 C22.630117,5.49976371 22.5964912,5.3389519 22.495614,5.21030246 L22.495614,5.21030246 Z M19.2002924,12.7362949 L6.69152047,12.7362949 L5.14473684,5.98219912 L21.3859649,5.98219912 L19.2002924,12.7362949 L19.2002924,12.7362949 Z" id="Shape"></path>
            </g>
        </g>
    </g>
</svg>