<?xml version="1.0" encoding="UTF-8" standalone="no"?>
<svg width="23px" height="18px" viewBox="0 0 23 18" version="1.1" xmlns="http://www.w3.org/2000/svg"
     xmlns:xlink="http://www.w3.org/1999/xlink" xmlns:sketch="http://www.bohemiancoding.com/sketch/ns">
    <!-- Generator: sketchtool 3.5.2 (25235) - http://www.bohemiancoding.com/sketch -->
    <title>Shape Copy</title>
    <desc>Created with sketchtool.</desc>
    <defs></defs>
    <g id="Welcome" stroke="none" stroke-width="1" fill="none" fill-rule="evenodd" sketch:type="MSPage">
        <g id="Share-store" sketch:type="MSArtboardGroup" transform="translate(-630.000000, -592.000000)"
           fill="#EEEFEE">
            <path d="M653,594.545455 C653,593.395455 652.059091,592.454545 650.909091,592.454545 L632.090909,592.454545 C630.940909,592.454545 630,593.395455 630,594.545455 L630,607.090909 C630,608.240909 630.940909,609.181818 632.090909,609.181818 L650.909091,609.181818 C652.059091,609.181818 653,608.240909 653,607.090909 L653,594.545455 L653,594.545455 Z M644.49697,601.062121 L651.954545,594.406061 L651.954545,594.545455 L651.954545,607.090909 C651.954545,607.160606 651.954545,607.195455 651.919697,607.265152 L644.49697,601.062121 L644.49697,601.062121 Z M650.909091,593.5 C651.048485,593.5 651.187879,593.534848 651.292424,593.569697 L642.545455,601.445455 C641.95303,601.968182 641.04697,601.968182 640.454545,601.445455 L631.707576,593.569697 C631.84697,593.534848 631.951515,593.5 632.090909,593.5 L650.909091,593.5 L650.909091,593.5 Z M631.080303,607.265152 C631.045455,607.195455 631.045455,607.160606 631.045455,607.090909 L631.045455,594.545455 L631.045455,594.406061 L638.468182,601.09697 L631.080303,607.265152 L631.080303,607.265152 Z M632.090909,608.136364 C631.951515,608.136364 631.84697,608.101515 631.742424,608.066667 L639.304545,601.793939 L639.757576,602.212121 C640.245455,602.665152 640.872727,602.874242 641.5,602.874242 C642.127273,602.874242 642.754545,602.665152 643.242424,602.212121 L643.730303,601.793939 L651.292424,608.066667 C651.187879,608.101515 651.048485,608.136364 650.943939,608.136364 L632.090909,608.136364 L632.090909,608.136364 Z"
                  id="Shape-Copy" sketch:type="MSShapeGroup"></path>
        </g>
    </g>
</svg>