<?xml version="1.0" encoding="UTF-8" standalone="no"?>
<svg width="12px" height="21px" viewBox="0 0 12 21" version="1.1" xmlns="http://www.w3.org/2000/svg"
     xmlns:xlink="http://www.w3.org/1999/xlink" xmlns:sketch="http://www.bohemiancoding.com/sketch/ns">
    <!-- Generator: sketchtool 3.5.2 (25235) - http://www.bohemiancoding.com/sketch -->
    <title>Shape</title>
    <desc>Created with sketchtool.</desc>
    <defs></defs>
    <g id="Welcome" stroke="none" stroke-width="1" fill="none" fill-rule="evenodd" sketch:type="MSPage">
        <g id="Share-store" sketch:type="MSArtboardGroup" transform="translate(-375.000000, -590.000000)"
           fill="#F1F1F1">
            <path d="M382.264825,610.817143 L378.51839,610.817143 C378.257769,610.817143 377.931992,610.751987 377.931992,610.458788 L377.931992,602.021167 L375.358355,602.021167 C375.097733,602.021167 375,601.923434 375,601.662812 L375,598.014111 C375,597.75349 375.097733,597.460291 375.358355,597.460291 L377.931992,597.460291 L377.931992,595.310163 C377.931992,592.019817 379.951809,590 383.144422,590 C384.480107,590 385.620326,590.097733 385.978681,590.162888 C386.239302,590.195466 386.402191,590.390932 386.402191,590.618976 L386.402191,593.876745 C386.402191,594.137366 386.239302,594.36541 385.978681,594.36541 L384.089175,594.36541 C382.948956,594.36541 382.818645,594.756342 382.818645,595.63594 L382.818645,597.460291 L385.880948,597.460291 C386.011259,597.460291 386.141569,597.558024 386.239302,597.655757 C386.337036,597.75349 386.369613,597.916378 386.369613,598.046689 L385.913526,601.630235 C385.880948,601.890856 385.652904,602.021167 385.42486,602.021167 L382.818645,602.021167 L382.818645,610.458788 C382.818645,610.751987 382.558024,610.817143 382.264825,610.817143 L382.264825,610.817143 Z M378.909323,609.839812 L381.841315,609.839812 L381.841315,601.662812 C381.841315,601.402191 382.004203,601.043836 382.264825,601.043836 L384.968773,601.043836 L385.327127,598.437621 L382.264825,598.437621 C382.004203,598.437621 381.841315,598.274733 381.841315,598.014111 L381.841315,595.701095 C381.841315,594.723765 382.004203,593.453235 384.056597,593.453235 L385.42486,593.453235 L385.42486,591.075064 C385.099083,591.042486 384.056597,590.977331 383.111844,590.977331 C380.473052,590.977331 378.909323,592.606215 378.909323,595.310163 L378.909323,598.014111 C378.909323,598.274733 378.779012,598.437621 378.51839,598.437621 L375.977331,598.437621 L375.977331,601.043836 L378.51839,601.043836 C378.779012,601.043836 378.909323,601.369613 378.909323,601.662812 L378.909323,609.839812 L378.909323,609.839812 Z"
                  id="Shape" sketch:type="MSShapeGroup"></path>
        </g>
    </g>
</svg>