<svg width="102px" height="90px" viewBox="0 0 102 90" version="1.1" xmlns="http://www.w3.org/2000/svg" xmlns:xlink="http://www.w3.org/1999/xlink">
  <g id="Page-1" stroke="none" stroke-width="1" fill="none" fill-rule="evenodd">
    <g id="image_upload" fill="#585656" fill-rule="nonzero">
      <path d="M88.611,57.969 C89.568,57.969 90.501,58.064 91.42,58.203 L91.42,7.221 C91.42,3.624 88.492,0.698 84.895,0.698 L7.33,0.698 C3.731,0.698 0.804,3.624 0.804,7.221 L0.804,75.385 C0.804,78.983 3.732,81.91 7.33,81.91 L70.715,81.91 C70.221,80.236 69.944,78.469 69.944,76.637 C69.945,66.343 78.319,57.969 88.611,57.969 Z M12.014,57.385 L12.014,11.861 L80.129,11.861 L80.129,57.384 L12.014,57.384 L12.014,57.385 Z" id="Shape"></path>
      <polygon id="Shape" points="43.68 44.545 32.604 27.275 16.75 51.996 61.505 51.996 50.203 34.372"></polygon>
      <path d="M64.839,17.779 C59.681,17.779 55.484,21.975 55.484,27.133 C55.484,32.292 59.681,36.488 64.839,36.488 C69.997,36.488 74.194,32.291 74.194,27.133 C74.195,21.975 69.998,17.779 64.839,17.779 Z M64.839,30.488 C62.988,30.488 61.484,28.983 61.484,27.133 C61.484,25.284 62.989,23.779 64.839,23.779 C66.689,23.779 68.194,25.283 68.194,27.133 C68.195,28.983 66.69,30.488 64.839,30.488 Z M88.611,63.969 C81.627,63.969 75.945,69.652 75.945,76.637 C75.945,83.621 81.627,89.303 88.611,89.303 C95.596,89.303 101.279,83.621 101.279,76.637 C101.279,69.651 95.596,63.969 88.611,63.969 Z M94.575,78.639 L90.541,74.993 L90.541,85.697 L86.541,85.697 L86.541,74.993 L82.509,78.638 L79.827,75.671 L88.541,67.795 L97.257,75.67 L94.575,78.639 Z" id="Shape"></path>
    </g>
  </g>
</svg>