<?xml version="1.0" encoding="UTF-8" standalone="no"?>
<svg width="24px" height="24px" viewBox="0 0 24 24" version="1.1" xmlns="http://www.w3.org/2000/svg" xmlns:xlink="http://www.w3.org/1999/xlink">
    <!-- Generator: Sketch 42 (36781) - http://www.bohemiancoding.com/sketch -->
    <title>Cell Elements/Contact Add</title>
    <desc>Created with Sketch.</desc>
    <defs></defs>
    <g id="Page-1" stroke="none" stroke-width="1" fill="none" fill-rule="evenodd">
        <g id="Chorme-Notification-1" transform="translate(-981.000000, -12.000000)" stroke="#FFFFFF" stroke-width="0.5" fill="#FFFFFF">
            <g id="Cell-Elements/Contact-Add" transform="translate(978.000000, 9.000000)">
                <path d="M15,26 C8.92486775,26 4,21.0751322 4,15 C4,8.92486775 8.92486775,4 15,4 C21.0751322,4 26,8.92486775 26,15 C26,21.0751322 21.0751322,26 15,26 Z M15,25 C20.5228475,25 25,20.5228475 25,15 C25,9.4771525 20.5228475,5 15,5 C9.4771525,5 5,9.4771525 5,15 C5,20.5228475 9.4771525,25 15,25 Z M15,14.2928932 L18.5355339,10.7573593 L19.2426407,11.4644661 L15.7071068,15 L19.2426407,18.5355339 L18.5355339,19.2426407 L15,15.7071068 L11.4644661,19.2426407 L10.7573593,18.5355339 L14.2928932,15 L10.7573593,11.4644661 L11.4644661,10.7573593 L15,14.2928932 Z" id="Contact-Add"></path>
            </g>
        </g>
    </g>
</svg>