<?xml version="1.0" encoding="UTF-8" standalone="no"?>
<svg width="20px" height="20px" viewBox="0 0 20 20" version="1.1" xmlns="http://www.w3.org/2000/svg"
     xmlns:xlink="http://www.w3.org/1999/xlink" xmlns:sketch="http://www.bohemiancoding.com/sketch/ns">
    <!-- Generator: sketchtool 3.5.2 (25235) - http://www.bohemiancoding.com/sketch -->
    <title>O1_Assets_xxHDPI_17.06.15_social_whatsapp</title>
    <desc>Created with sketchtool.</desc>
    <defs></defs>
    <g id="Welcome" stroke="none" stroke-width="1" fill="none" fill-rule="evenodd" sketch:type="MSPage">
        <g id="Share-store" sketch:type="MSArtboardGroup" transform="translate(-502.000000, -591.000000)"
           fill="#F0F0F0">
            <g id="O1_Assets_xxHDPI_17.06.15_social_whatsapp" sketch:type="MSLayerGroup"
               transform="translate(502.000000, 591.000000)">
                <path d="M14.2424242,10.9090909 L11.7878788,10.6060606 C11.3333333,10.5454545 10.9393939,10.8181818 10.7878788,11.2424242 L10.6060606,11.7575758 C9.57575758,11.1515152 8.84848485,10.4545455 8.24242424,9.36363636 L8.75757576,9.18181818 C9.18181818,9.03030303 9.42424242,8.63636364 9.39393939,8.18181818 L9.09090909,5.75757576 C9,5 8.3030303,4.45454545 7.51515152,4.54545455 L7.45454545,4.54545455 C6.48484848,4.66666667 5.63636364,5.21212121 5.09090909,6.03030303 C4.57575758,6.81818182 4.42424242,7.78787879 4.6969697,8.6969697 C5.63636364,11.8787879 8.12121212,14.3636364 11.3030303,15.3030303 C11.6060606,15.3939394 11.9090909,15.4242424 12.2121212,15.4242424 C13.8484848,15.4242424 15.2424242,14.1818182 15.4545455,12.5454545 L15.4545455,12.4848485 C15.5151515,12.1212121 15.3939394,11.7575758 15.1818182,11.4545455 C14.9393939,11.1515152 14.6060606,10.969697 14.2424242,10.9090909 L14.2424242,10.9090909 Z M14.5454545,12.4545455 C14.3939394,13.6363636 13.3939394,14.5454545 12.2121212,14.5454545 C12,14.5454545 11.7878788,14.5151515 11.5757576,14.4545455 C8.66666667,13.6060606 6.42424242,11.3636364 5.57575758,8.45454545 C5.39393939,7.81818182 5.48484848,7.12121212 5.84848485,6.54545455 C6.24242424,5.93939394 6.84848485,5.57575758 7.54545455,5.48484848 L7.60606061,5.48484848 L7.66666667,5.48484848 C7.90909091,5.48484848 8.12121212,5.66666667 8.15151515,5.90909091 L8.45454545,8.39393939 L7.93939394,8.57575758 C7.66666667,8.66666667 7.45454545,8.87878788 7.36363636,9.12121212 C7.27272727,9.39393939 7.3030303,9.66666667 7.42424242,9.90909091 C8.12121212,11.0909091 8.93939394,11.9090909 10.1212121,12.6060606 C10.2727273,12.6969697 10.4242424,12.7272727 10.5757576,12.7272727 C10.969697,12.7272727 11.3333333,12.4848485 11.4545455,12.0909091 L11.6363636,11.5757576 L14.0909091,11.8787879 C14.2121212,11.9090909 14.3333333,11.969697 14.4242424,12.0606061 C14.5151515,12.1515152 14.5454545,12.3030303 14.5151515,12.4242424 L14.5454545,12.4545455 L14.5454545,12.4545455 Z"
                      id="Shape" sketch:type="MSShapeGroup"></path>
                <path d="M10,0 C9.66666667,0 9.33333333,0.0303030303 9,0.0606060606 C4.21212121,0.515151515 0.363636364,4.45454545 0.0303030303,9.27272727 C-0.121212121,11.3939394 0.393939394,13.4242424 1.39393939,15.0909091 L0.242424242,19.0909091 C0.151515152,19.3939394 0.393939394,19.6666667 0.666666667,19.6666667 C0.696969697,19.6666667 0.757575758,19.6666667 0.787878788,19.6363636 L4.72727273,18.4848485 C6.24242424,19.4242424 8.06060606,19.969697 10,19.969697 C10.3939394,19.969697 10.7575758,19.9393939 11.1515152,19.9090909 C15.7575758,19.3939394 19.4848485,15.6363636 19.9393939,11 C20.5454545,5.03030303 15.8484848,0 10,0 L10,0 Z M19.030303,10.9393939 C18.6363636,15.1515152 15.2727273,18.5454545 11.0606061,19.030303 C10.6969697,19.0606061 10.3636364,19.0909091 10,19.0909091 C8.3030303,19.0909091 6.66666667,18.6060606 5.21212121,17.7272727 C5.06060606,17.6363636 4.90909091,17.5757576 4.72727273,17.5757576 C4.63636364,17.5757576 4.54545455,17.5757576 4.48484848,17.6060606 L1.33333333,18.5151515 L2.27272727,15.3030303 C2.33333333,15.0606061 2.3030303,14.7878788 2.18181818,14.5757576 C1.24242424,13.030303 0.787878788,11.2121212 0.939393939,9.33333333 C1.24242424,4.96969697 4.75757576,1.39393939 9.09090909,0.939393939 C9.39393939,0.939393939 9.6969697,0.909090909 10,0.909090909 C12.5757576,0.909090909 15.030303,2 16.7272727,3.90909091 C18.4848485,5.81818182 19.3030303,8.33333333 19.030303,10.9393939 L19.030303,10.9393939 Z"
                      id="Shape" sketch:type="MSShapeGroup"></path>
            </g>
        </g>
    </g>
</svg>